<?xml version="1.0" encoding="UTF-8"?>
<svg xmlns="http://www.w3.org/2000/svg" version="1.1" viewBox="0 0 50 50">
  <!-- Generator: Adobe Illustrator 29.2.1, SVG Export Plug-In . SVG Version: 2.1.0 Build 116)  -->
  <defs>
    <style>
      .st0 {
        fill: #fff;
      }
    </style>
  </defs>
  <g id="Layer_2">
    <rect y="5" width="50" height="40"/>
  </g>
  <g id="Layer_1">
    <path class="st0" d="M45.47,7.88h-5.13s-.03-.01-.04-.02h-7.86c-.88.03-1.47.27-1.76,1.07l-5.68,14.68-5.73-14.64c-.28-.8-1.11-1.1-1.76-1.1h-7.61s-.03.01-.04.02h-5.35c-.84,0-1.53.68-1.53,1.53v31.2c0,.84.68,1.53,1.53,1.53h9.56c.84,0,1.53-.68,1.53-1.53v-10.45c0-.49-.08-1.78-.08-1.78l3.99,10.37c.28.8.91,1.04,1.76,1h7.48c.92.03,1.47-.2,1.76-.99l3.87-10.14v12c0,.84.68,1.53,1.53,1.53h9.56c.84,0,1.53-.68,1.53-1.53V9.41c0-.84-.68-1.53-1.53-1.53Z"/>
  </g>
</svg>