<?xml version="1.0" encoding="UTF-8"?>
<svg id="Layer_1" xmlns="http://www.w3.org/2000/svg" version="1.1" viewBox="0 0 50 50">
  <!-- Generator: Adobe Illustrator 29.2.1, SVG Export Plug-In . SVG Version: 2.1.0 Build 116)  -->
  <path d="M25,0C11.19,0,0,11.19,0,25s11.19,25,25,25,25-11.19,25-25S38.81,0,25,0ZM41,36.35c0,.61-.5,1.11-1.11,1.11h-6.95c-.61,0-1.11-.5-1.11-1.11v-8.72l-2.82,7.37c-.21.58-.61.75-1.28.72h-5.44c-.62.03-1.07-.15-1.28-.73l-2.9-7.54s.06.93.06,1.29v7.6c0,.61-.5,1.11-1.11,1.11h-6.95c-.61,0-1.11-.5-1.11-1.11V13.66c0-.61.5-1.11,1.11-1.11h3.89s.02-.01.03-.01h5.54c.47,0,1.07.22,1.28.8l4.17,10.65,4.13-10.68c.21-.58.64-.75,1.28-.78h5.72s.02,0,.03.01h3.73c.61,0,1.11.5,1.11,1.11v22.69Z"/>
</svg>