<?xml version="1.0" encoding="UTF-8"?>
<svg id="Layer_1" xmlns="http://www.w3.org/2000/svg" version="1.1" viewBox="0 0 50 50">
  <!-- Generator: Adobe Illustrator 29.2.1, SVG Export Plug-In . SVG Version: 2.1.0 Build 116)  -->
  <path d="M46.22,7.26h-5.31s-.03-.01-.04-.02h-8.14c-.91.03-1.53.28-1.82,1.11l-5.88,15.21-5.94-15.18c-.29-.83-1.15-1.14-1.82-1.14h-7.89s-.03.01-.04.02H3.78c-.87,0-1.58.71-1.58,1.58v32.34c0,.87.71,1.58,1.58,1.58h9.91c.87,0,1.58-.71,1.58-1.58v-10.83c0-.51-.09-1.84-.09-1.84l4.13,10.75c.29.83.94,1.07,1.82,1.04h7.76c.96.04,1.53-.21,1.82-1.03l4.01-10.51v12.43c0,.87.71,1.58,1.58,1.58h9.91c.87,0,1.58-.71,1.58-1.58V8.84c0-.87-.71-1.58-1.58-1.58Z"/>
</svg>